<svg width="280" height="40" viewBox="0 0 280 40" fill="none" xmlns="http://www.w3.org/2000/svg">
<path d="M6.19886 31H0.573864L10.8153 1.90909H17.321L27.5767 31H21.9517L14.1818 7.875H13.9545L6.19886 31ZM6.38352 19.5938H21.7244V23.8267H6.38352V19.5938ZM31.1811 31V9.18182H36.1669V12.8182H36.3942C36.7919 11.5587 37.4737 10.5881 38.4396 9.90625C39.415 9.21496 40.5277 8.86932 41.7777 8.86932C42.0618 8.86932 42.379 8.88352 42.7294 8.91193C43.0893 8.93087 43.3875 8.96401 43.6243 9.01136V13.7415C43.4065 13.6657 43.0608 13.5994 42.5874 13.5426C42.1233 13.4763 41.6735 13.4432 41.2379 13.4432C40.3004 13.4432 39.4576 13.6468 38.7095 14.054C37.9709 14.4517 37.3885 15.0057 36.9624 15.7159C36.5362 16.4261 36.3232 17.2453 36.3232 18.1733V31H31.1811ZM55.6591 31.4261C53.4811 31.4261 51.6108 30.9479 50.0483 29.9915C48.4953 29.035 47.2973 27.714 46.4545 26.0284C45.6212 24.3333 45.2045 22.3826 45.2045 20.1761C45.2045 17.9602 45.6307 16.0047 46.483 14.3097C47.3352 12.6051 48.5379 11.2794 50.0909 10.3324C51.6534 9.37595 53.5 8.89773 55.6307 8.89773C57.4015 8.89773 58.9688 9.22443 60.3324 9.87784C61.7055 10.5218 62.7992 11.4356 63.6136 12.6193C64.428 13.7936 64.892 15.1667 65.0057 16.7386H60.0909C59.892 15.6875 59.4186 14.8116 58.6705 14.1108C57.9318 13.4006 56.9422 13.0455 55.7017 13.0455C54.6506 13.0455 53.7273 13.3295 52.9318 13.8977C52.1364 14.4564 51.5161 15.2614 51.071 16.3125C50.6354 17.3636 50.4176 18.6231 50.4176 20.0909C50.4176 21.5777 50.6354 22.8561 51.071 23.9261C51.5066 24.9867 52.1174 25.8059 52.9034 26.3835C53.6989 26.9517 54.6316 27.2358 55.7017 27.2358C56.4593 27.2358 57.1364 27.0937 57.733 26.8097C58.339 26.5161 58.8456 26.0947 59.2528 25.5455C59.66 24.9962 59.9394 24.3286 60.0909 23.5426H65.0057C64.8826 25.0862 64.428 26.4545 63.642 27.6477C62.8561 28.8314 61.786 29.7595 60.4318 30.4318C59.0777 31.0947 57.4867 31.4261 55.6591 31.4261ZM80.1229 9.18182V13.1591H67.5803V9.18182H80.1229ZM70.6768 3.95455H75.8189V24.4375C75.8189 25.1288 75.9231 25.6591 76.1314 26.0284C76.3492 26.3883 76.6333 26.6345 76.9837 26.767C77.334 26.8996 77.7223 26.9659 78.1484 26.9659C78.4704 26.9659 78.764 26.9422 79.0291 26.8949C79.3037 26.8475 79.5121 26.8049 79.6541 26.767L80.5206 30.7869C80.246 30.8816 79.853 30.9858 79.3416 31.0994C78.8397 31.2131 78.2242 31.2794 77.495 31.2983C76.2071 31.3362 75.0471 31.142 74.0149 30.7159C72.9827 30.2803 72.1636 29.608 71.5575 28.6989C70.9609 27.7898 70.6674 26.6534 70.6768 25.2898V3.95455ZM84.4233 31V9.18182H89.5653V31H84.4233ZM87.0085 6.08523C86.1941 6.08523 85.4934 5.81534 84.9062 5.27557C84.3191 4.72632 84.0256 4.06818 84.0256 3.30114C84.0256 2.52462 84.3191 1.86648 84.9062 1.3267C85.4934 0.777461 86.1941 0.50284 87.0085 0.50284C87.8324 0.50284 88.5331 0.777461 89.1108 1.3267C89.6979 1.86648 89.9915 2.52462 89.9915 3.30114C89.9915 4.06818 89.6979 4.72632 89.1108 5.27557C88.5331 5.81534 87.8324 6.08523 87.0085 6.08523ZM104.37 31.4261C102.192 31.4261 100.322 30.9479 98.7592 29.9915C97.2062 29.035 96.0083 27.714 95.1655 26.0284C94.3321 24.3333 93.9155 22.3826 93.9155 20.1761C93.9155 17.9602 94.3416 16.0047 95.1939 14.3097C96.0462 12.6051 97.2488 11.2794 98.8018 10.3324C100.364 9.37595 102.211 8.89773 104.342 8.89773C106.112 8.89773 107.68 9.22443 109.043 9.87784C110.416 10.5218 111.51 11.4356 112.325 12.6193C113.139 13.7936 113.603 15.1667 113.717 16.7386H108.802C108.603 15.6875 108.129 14.8116 107.381 14.1108C106.643 13.4006 105.653 13.0455 104.413 13.0455C103.362 13.0455 102.438 13.3295 101.643 13.8977C100.847 14.4564 100.227 15.2614 99.782 16.3125C99.3464 17.3636 99.1286 18.6231 99.1286 20.0909C99.1286 21.5777 99.3464 22.8561 99.782 23.9261C100.218 24.9867 100.828 25.8059 101.614 26.3835C102.41 26.9517 103.343 27.2358 104.413 27.2358C105.17 27.2358 105.847 27.0937 106.444 26.8097C107.05 26.5161 107.557 26.0947 107.964 25.5455C108.371 24.9962 108.65 24.3286 108.802 23.5426H113.717C113.594 25.0862 113.139 26.4545 112.353 27.6477C111.567 28.8314 110.497 29.7595 109.143 30.4318C107.789 31.0947 106.198 31.4261 104.37 31.4261ZM126.81 6.3267V1.90909H150.02V6.3267H141.028V31H135.801V6.3267H126.81ZM152.001 31V9.18182H156.987V12.8182H157.214C157.612 11.5587 158.294 10.5881 159.26 9.90625C160.235 9.21496 161.348 8.86932 162.598 8.86932C162.882 8.86932 163.199 8.88352 163.55 8.91193C163.91 8.93087 164.208 8.96401 164.445 9.01136V13.7415C164.227 13.6657 163.881 13.5994 163.408 13.5426C162.944 13.4763 162.494 13.4432 162.058 13.4432C161.121 13.4432 160.278 13.6468 159.53 14.054C158.791 14.4517 158.209 15.0057 157.783 15.7159C157.357 16.4261 157.143 17.2453 157.143 18.1733V31H152.001ZM173.749 31.4403C172.366 31.4403 171.121 31.1941 170.013 30.7017C168.914 30.1998 168.043 29.4612 167.399 28.4858C166.765 27.5104 166.447 26.3078 166.447 24.8778C166.447 23.6468 166.675 22.6288 167.129 21.8239C167.584 21.0189 168.204 20.375 168.99 19.892C169.776 19.4091 170.661 19.0445 171.646 18.7983C172.641 18.5426 173.668 18.358 174.729 18.2443C176.007 18.1117 177.044 17.9934 177.839 17.8892C178.635 17.7756 179.213 17.6051 179.572 17.3778C179.942 17.1411 180.126 16.7765 180.126 16.2841V16.1989C180.126 15.1288 179.809 14.3002 179.175 13.7131C178.54 13.1259 177.626 12.8324 176.433 12.8324C175.174 12.8324 174.175 13.107 173.436 13.6562C172.707 14.2055 172.214 14.8542 171.959 15.6023L167.158 14.9205C167.536 13.5947 168.161 12.4867 169.033 11.5966C169.904 10.697 170.969 10.0246 172.229 9.57955C173.488 9.125 174.88 8.89773 176.405 8.89773C177.456 8.89773 178.502 9.02083 179.544 9.26705C180.586 9.51326 181.537 9.92045 182.399 10.4886C183.261 11.0473 183.952 11.8097 184.473 12.7756C185.003 13.7415 185.268 14.9489 185.268 16.3977V31H180.325V28.0028H180.155C179.842 28.6089 179.402 29.1771 178.834 29.7074C178.275 30.2282 177.57 30.6496 176.717 30.9716C175.875 31.2841 174.885 31.4403 173.749 31.4403ZM175.084 27.6619C176.116 27.6619 177.011 27.4583 177.768 27.0511C178.526 26.6345 179.108 26.0852 179.516 25.4034C179.932 24.7216 180.141 23.9782 180.141 23.1733V20.6023C179.98 20.7348 179.705 20.858 179.317 20.9716C178.938 21.0852 178.512 21.1847 178.038 21.2699C177.565 21.3551 177.096 21.4309 176.632 21.4972C176.168 21.5634 175.766 21.6203 175.425 21.6676C174.658 21.7718 173.971 21.9422 173.365 22.179C172.759 22.4157 172.281 22.7472 171.93 23.1733C171.58 23.59 171.405 24.1297 171.405 24.7926C171.405 25.7396 171.75 26.4545 172.442 26.9375C173.133 27.4205 174.014 27.6619 175.084 27.6619ZM190.439 31V9.18182H195.581V31H190.439ZM193.024 6.08523C192.21 6.08523 191.509 5.81534 190.922 5.27557C190.335 4.72632 190.041 4.06818 190.041 3.30114C190.041 2.52462 190.335 1.86648 190.922 1.3267C191.509 0.777461 192.21 0.50284 193.024 0.50284C193.848 0.50284 194.549 0.777461 195.126 1.3267C195.714 1.86648 196.007 2.52462 196.007 3.30114C196.007 4.06818 195.714 4.72632 195.126 5.27557C194.549 5.81534 193.848 6.08523 193.024 6.08523ZM206.011 18.2159V31H200.869V9.18182H205.783V12.8892H206.039C206.541 11.6676 207.341 10.697 208.44 9.97727C209.548 9.25758 210.916 8.89773 212.545 8.89773C214.05 8.89773 215.362 9.2197 216.479 9.86364C217.606 10.5076 218.478 11.4403 219.093 12.6619C219.718 13.8835 220.026 15.3655 220.016 17.108V31H214.874V17.9034C214.874 16.4451 214.496 15.304 213.738 14.4801C212.99 13.6562 211.953 13.2443 210.627 13.2443C209.728 13.2443 208.927 13.4432 208.227 13.8409C207.535 14.2292 206.991 14.7926 206.593 15.5312C206.205 16.2699 206.011 17.1648 206.011 18.2159ZM225.244 31V9.18182H230.386V31H225.244ZM227.829 6.08523C227.014 6.08523 226.314 5.81534 225.727 5.27557C225.139 4.72632 224.846 4.06818 224.846 3.30114C224.846 2.52462 225.139 1.86648 225.727 1.3267C226.314 0.777461 227.014 0.50284 227.829 0.50284C228.653 0.50284 229.353 0.777461 229.931 1.3267C230.518 1.86648 230.812 2.52462 230.812 3.30114C230.812 4.06818 230.518 4.72632 229.931 5.27557C229.353 5.81534 228.653 6.08523 227.829 6.08523ZM240.815 18.2159V31H235.673V9.18182H240.588V12.8892H240.844C241.346 11.6676 242.146 10.697 243.244 9.97727C244.352 9.25758 245.721 8.89773 247.349 8.89773C248.855 8.89773 250.167 9.2197 251.284 9.86364C252.411 10.5076 253.282 11.4403 253.898 12.6619C254.523 13.8835 254.83 15.3655 254.821 17.108V31H249.679V17.9034C249.679 16.4451 249.3 15.304 248.543 14.4801C247.795 13.6562 246.758 13.2443 245.432 13.2443C244.532 13.2443 243.732 13.4432 243.031 13.8409C242.34 14.2292 241.795 14.7926 241.398 15.5312C241.009 16.2699 240.815 17.1648 240.815 18.2159ZM269.537 39.6364C267.69 39.6364 266.104 39.3854 264.778 38.8835C263.453 38.3911 262.387 37.7282 261.582 36.8949C260.777 36.0616 260.219 35.1383 259.906 34.125L264.537 33.0028C264.745 33.429 265.048 33.8504 265.446 34.267C265.844 34.6932 266.379 35.0436 267.051 35.3182C267.733 35.6023 268.59 35.7443 269.622 35.7443C271.08 35.7443 272.288 35.3892 273.244 34.679C274.201 33.9782 274.679 32.8229 274.679 31.2131V27.0795H274.423C274.158 27.6098 273.77 28.1544 273.259 28.7131C272.757 29.2718 272.089 29.7405 271.256 30.1193C270.432 30.4981 269.395 30.6875 268.145 30.6875C266.469 30.6875 264.949 30.2945 263.585 29.5085C262.231 28.7131 261.152 27.5294 260.347 25.9574C259.551 24.3759 259.153 22.3968 259.153 20.0199C259.153 17.6241 259.551 15.6023 260.347 13.9545C261.152 12.2973 262.236 11.0426 263.599 10.1903C264.963 9.3286 266.483 8.89773 268.159 8.89773C269.438 8.89773 270.489 9.11553 271.312 9.55114C272.146 9.97727 272.809 10.4934 273.301 11.0994C273.794 11.696 274.168 12.2595 274.423 12.7898H274.707V9.18182H279.778V31.3551C279.778 33.2206 279.333 34.7642 278.443 35.9858C277.553 37.2074 276.336 38.1212 274.793 38.7273C273.249 39.3333 271.497 39.6364 269.537 39.6364ZM269.58 26.6534C270.669 26.6534 271.597 26.3883 272.364 25.858C273.131 25.3277 273.713 24.5653 274.111 23.571C274.509 22.5767 274.707 21.3835 274.707 19.9915C274.707 18.6184 274.509 17.4157 274.111 16.3835C273.723 15.3513 273.145 14.5511 272.378 13.983C271.62 13.4053 270.688 13.1165 269.58 13.1165C268.434 13.1165 267.477 13.4148 266.71 14.0114C265.943 14.608 265.366 15.4271 264.977 16.4688C264.589 17.5009 264.395 18.6752 264.395 19.9915C264.395 21.3267 264.589 22.4962 264.977 23.5C265.375 24.4943 265.957 25.2708 266.724 25.8295C267.501 26.3788 268.453 26.6534 269.58 26.6534Z" fill="#249EDC"/>
</svg>
